<svg xmlns:dc="http://purl.org/dc/elements/1.1/" xmlns:cc="http://creativecommons.org/ns#" xmlns:rdf="http://www.w3.org/1999/02/22-rdf-syntax-ns#" xmlns:svg="http://www.w3.org/2000/svg" xmlns="http://www.w3.org/2000/svg" viewBox="0 0 603.15997 697.88" height="700" width="700" xml:space="preserve" id="svg2" version="1.1"><metadata id="metadata8"><rdf:RDF><cc:Work rdf:about=""><dc:format>image/svg+xml</dc:format><dc:type rdf:resource="http://purl.org/dc/dcmitype/StillImage" /></cc:Work></rdf:RDF></metadata><defs id="defs6"><clipPath id="clipPath20" clipPathUnits="userSpaceOnUse"><path id="path18" d="m 3683.46,4652.26 c -470.98,0 -942.32,1.4 -1413.3,-0.7 -295.63,-1.05 -567.07,-85.92 -812.55,-251.1 C 1262.97,4269.66 1105.86,4102.02 996.094,3895.47 780.422,3490.42 752.363,3069.93 922.801,2641.74 1036.78,2355.92 1223.35,2133.58 1473.39,1970.51 v 567.42 c -178.5,214.63 -256.71,470.63 -225.85,764.87 55.76,531.64 501.49,922.32 1037.35,922.67 331.76,0.35 663.86,-0.7 995.62,0.35 224.44,1.05 404.7,150.09 449.94,369.28 10.87,52.6 7.71,57.16 -46.99,57.16 z" /></clipPath><clipPath id="clipPath150" clipPathUnits="userSpaceOnUse"><path id="path148" d="m 3735.71,3140.78 c -17.89,-685.26 -528.5,-1271.62 -1204.63,-1389.45 -89.78,-15.43 -179.91,-22.45 -271.44,-21.74 v 425.39 c 411.37,-5.61 786.96,229.35 961.95,613.01 85.92,189.02 97.85,388.57 88.38,591.27 -0.35,9.47 -23.15,25.6 -35.77,25.6 -322.64,1.75 -644.93,2.45 -967.57,0.35 -91.53,-0.7 -162.72,-44.19 -203.4,-129.06 -43.13,-90.83 -16.83,-185.86 -24.55,-284.76 h 716.82 c -4.21,-30.86 -5.96,-56.11 -11.57,-80.66 -47.7,-199.89 -227.6,-339.82 -442.58,-344.38 -74.34,-1.75 -148.69,-0.35 -222.69,-0.7 -20.69,0 -39.62,0.35 -39.27,-29.46 0.7,-111.87 0.35,-223.74 0.35,-340.52 0,0 0,0 0.35,0 v -555.85 h 0.7 V 928.949 c -92.93,6.672 -257.06,3.16 -431.7,3.16 -1.06,93.991 -1.06,175.001 0,257.061 h -313.88 v 247.59 h 317.38 c -0.35,54.7 -0.7,109.41 -0.7,164.12 h -171.14 v 247.59 h 172.19 v 750.48 h -0.35 c -0.35,184.47 -0.35,368.93 0.35,553.4 1.76,284.06 175.35,531.3 440.82,621.43 64.88,22.09 136.07,35.06 204.46,35.42 357.71,3.5 715.06,1.75 1072.77,1.75 107.31,0 214.62,-1.05 321.94,0.7 33.31,0.7 45.23,-9.47 44.88,-43.48 -1.4,-209.02 3.51,-418.38 -2.1,-627.39 z" /></clipPath><clipPath id="clipPath280" clipPathUnits="userSpaceOnUse"><path id="path278" d="M 252.723,4615.6 C 289.531,2429.65 947.742,1013.5 2263.01,290.531 3501.94,1118.35 4157.33,2545.96 4264.47,4649.97 2831.62,5105.32 1482.79,5093.71 252.723,4615.6 Z M 2278.61,20.25 2218.02,52.0898 C 1482.16,438.898 923.969,1039.85 558.949,1838.32 211.664,2598.01 29.8008,3559.51 18.4609,4696.1 l -0.7968,78.04 71.8711,29.1 C 1415.71,5340.46 2872.62,5353.97 4419.89,4843.34 l 85.67,-28.26 -3.85,-89.52 C 4404.01,2460.28 3695.35,933.082 2335.25,56.75 Z" /></clipPath></defs><g transform="matrix(1.3333333,0,0,-1.3333333,0,697.88)" id="g10"><g transform="scale(0.1)" id="g12"><g id="g14"><g clip-path="url(#clipPath20)" id="g16"><path id="path22" style="fill:#4ea5d5;fill-opacity:1;fill-rule:nonzero;stroke:none" d="M 812.164,4653.66 V 1970.51 h -59.801 v 2683.15 h 59.801" /><path id="path24" style="fill:#4ea5d5;fill-opacity:1;fill-rule:nonzero;stroke:none" d="M 862.566,4653.66 V 1970.51 h -50.402 v 2683.15 h 50.402" /><path id="path26" style="fill:#4da4d4;fill-opacity:1;fill-rule:nonzero;stroke:none" d="M 912.969,4653.66 V 1970.51 h -50.403 v 2683.15 h 50.403" /><path id="path28" style="fill:#4da3d4;fill-opacity:1;fill-rule:nonzero;stroke:none" d="M 963.371,4653.66 V 1970.51 h -50.402 v 2683.15 h 50.402" /><path id="path30" style="fill:#4da2d3;fill-opacity:1;fill-rule:nonzero;stroke:none" d="M 1013.77,4653.66 V 1970.51 h -50.399 v 2683.15 h 50.399" /><path id="path32" style="fill:#4ca1d2;fill-opacity:1;fill-rule:nonzero;stroke:none" d="M 1064.17,4653.66 V 1970.51 h -50.4 v 2683.15 h 50.4" /><path id="path34" style="fill:#4ca0d2;fill-opacity:1;fill-rule:nonzero;stroke:none" d="M 1114.57,4653.66 V 1970.51 h -50.4 v 2683.15 h 50.4" /><path id="path36" style="fill:#4c9fd1;fill-opacity:1;fill-rule:nonzero;stroke:none" d="M 1164.98,4653.66 V 1970.51 h -50.41 v 2683.15 h 50.41" /><path id="path38" style="fill:#4b9dd0;fill-opacity:1;fill-rule:nonzero;stroke:none" d="M 1215.38,4653.66 V 1970.51 h -50.4 v 2683.15 h 50.4" /><path id="path40" style="fill:#4b9cd0;fill-opacity:1;fill-rule:nonzero;stroke:none" d="M 1265.78,4653.66 V 1970.51 h -50.4 v 2683.15 h 50.4" /><path id="path42" style="fill:#4a9bcf;fill-opacity:1;fill-rule:nonzero;stroke:none" d="M 1316.18,4653.66 V 1970.51 h -50.4 v 2683.15 h 50.4" /><path id="path44" style="fill:#4a9acf;fill-opacity:1;fill-rule:nonzero;stroke:none" d="M 1366.58,4653.66 V 1970.51 h -50.4 v 2683.15 h 50.4" /><path id="path46" style="fill:#4999cf;fill-opacity:1;fill-rule:nonzero;stroke:none" d="M 1416.98,4653.66 V 1970.51 h -50.4 v 2683.15 h 50.4" /><path id="path48" style="fill:#4998ce;fill-opacity:1;fill-rule:nonzero;stroke:none" d="M 1467.39,4653.66 V 1970.51 h -50.41 v 2683.15 h 50.41" /><path id="path50" style="fill:#4897cd;fill-opacity:1;fill-rule:nonzero;stroke:none" d="M 1517.79,4653.66 V 1970.51 h -50.4 v 2683.15 h 50.4" /><path id="path52" style="fill:#4896cd;fill-opacity:1;fill-rule:nonzero;stroke:none" d="M 1568.19,4653.66 V 1970.51 h -50.4 v 2683.15 h 50.4" /><path id="path54" style="fill:#4795cc;fill-opacity:1;fill-rule:nonzero;stroke:none" d="M 1618.59,4653.66 V 1970.51 h -50.4 v 2683.15 h 50.4" /><path id="path56" style="fill:#4794cb;fill-opacity:1;fill-rule:nonzero;stroke:none" d="M 1668.99,4653.66 V 1970.51 h -50.4 v 2683.15 h 50.4" /><path id="path58" style="fill:#4693cb;fill-opacity:1;fill-rule:nonzero;stroke:none" d="M 1719.39,4653.66 V 1970.51 h -50.4 v 2683.15 h 50.4" /><path id="path60" style="fill:#4692ca;fill-opacity:1;fill-rule:nonzero;stroke:none" d="M 1769.8,4653.66 V 1970.51 h -50.41 v 2683.15 h 50.41" /><path id="path62" style="fill:#4691c9;fill-opacity:1;fill-rule:nonzero;stroke:none" d="M 1820.2,4653.66 V 1970.51 h -50.4 v 2683.15 h 50.4" /><path id="path64" style="fill:#4690c9;fill-opacity:1;fill-rule:nonzero;stroke:none" d="M 1870.6,4653.66 V 1970.51 h -50.4 v 2683.15 h 50.4" /><path id="path66" style="fill:#468fc9;fill-opacity:1;fill-rule:nonzero;stroke:none" d="M 1921,4653.66 V 1970.51 h -50.4 v 2683.15 h 50.4" /><path id="path68" style="fill:#458ec8;fill-opacity:1;fill-rule:nonzero;stroke:none" d="M 1971.4,4653.66 V 1970.51 H 1921 v 2683.15 h 50.4" /><path id="path70" style="fill:#458dc8;fill-opacity:1;fill-rule:nonzero;stroke:none" d="M 2021.8,4653.66 V 1970.51 h -50.4 v 2683.15 h 50.4" /><path id="path72" style="fill:#448cc7;fill-opacity:1;fill-rule:nonzero;stroke:none" d="M 2072.21,4653.66 V 1970.51 h -50.41 v 2683.15 h 50.41" /><path id="path74" style="fill:#448bc6;fill-opacity:1;fill-rule:nonzero;stroke:none" d="M 2122.61,4653.66 V 1970.51 h -50.4 v 2683.15 h 50.4" /><path id="path76" style="fill:#448ac6;fill-opacity:1;fill-rule:nonzero;stroke:none" d="M 2173.01,4653.66 V 1970.51 h -50.4 v 2683.15 h 50.4" /><path id="path78" style="fill:#4489c5;fill-opacity:1;fill-rule:nonzero;stroke:none" d="M 2223.41,4653.66 V 1970.51 h -50.4 v 2683.15 h 50.4" /><path id="path80" style="fill:#4388c5;fill-opacity:1;fill-rule:nonzero;stroke:none" d="M 2273.81,4653.66 V 1970.51 h -50.4 v 2683.15 h 50.4" /><path id="path82" style="fill:#4387c5;fill-opacity:1;fill-rule:nonzero;stroke:none" d="M 2324.21,4653.66 V 1970.51 h -50.4 v 2683.15 h 50.4" /><path id="path84" style="fill:#4286c4;fill-opacity:1;fill-rule:nonzero;stroke:none" d="M 2374.61,4653.66 V 1970.51 h -50.4 v 2683.15 h 50.4" /><path id="path86" style="fill:#4285c3;fill-opacity:1;fill-rule:nonzero;stroke:none" d="M 2425.02,4653.66 V 1970.51 h -50.41 v 2683.15 h 50.41" /><path id="path88" style="fill:#4184c4;fill-opacity:1;fill-rule:nonzero;stroke:none" d="M 2475.42,4653.66 V 1970.51 h -50.4 v 2683.15 h 50.4" /><path id="path90" style="fill:#4083c3;fill-opacity:1;fill-rule:nonzero;stroke:none" d="M 2525.82,4653.66 V 1970.51 h -50.4 v 2683.15 h 50.4" /><path id="path92" style="fill:#4082c2;fill-opacity:1;fill-rule:nonzero;stroke:none" d="M 2576.22,4653.66 V 1970.51 h -50.4 v 2683.15 h 50.4" /><path id="path94" style="fill:#4081c3;fill-opacity:1;fill-rule:nonzero;stroke:none" d="M 2626.62,4653.66 V 1970.51 h -50.4 v 2683.15 h 50.4" /><path id="path96" style="fill:#3f80c2;fill-opacity:1;fill-rule:nonzero;stroke:none" d="M 2677.02,4653.66 V 1970.51 h -50.4 v 2683.15 h 50.4" /><path id="path98" style="fill:#3f7fc1;fill-opacity:1;fill-rule:nonzero;stroke:none" d="M 2727.43,4653.66 V 1970.51 h -50.41 v 2683.15 h 50.41" /><path id="path100" style="fill:#3f7ec1;fill-opacity:1;fill-rule:nonzero;stroke:none" d="M 2777.83,4653.66 V 1970.51 h -50.4 v 2683.15 h 50.4" /><path id="path102" style="fill:#3e7ec0;fill-opacity:1;fill-rule:nonzero;stroke:none" d="M 2828.23,4653.66 V 1970.51 h -50.4 v 2683.15 h 50.4" /><path id="path104" style="fill:#3e7cbf;fill-opacity:1;fill-rule:nonzero;stroke:none" d="M 2878.63,4653.66 V 1970.51 h -50.4 v 2683.15 h 50.4" /><path id="path106" style="fill:#3e7cc0;fill-opacity:1;fill-rule:nonzero;stroke:none" d="M 2929.03,4653.66 V 1970.51 h -50.4 v 2683.15 h 50.4" /><path id="path108" style="fill:#3e7bbf;fill-opacity:1;fill-rule:nonzero;stroke:none" d="M 2979.43,4653.66 V 1970.51 h -50.4 v 2683.15 h 50.4" /><path id="path110" style="fill:#3d7abe;fill-opacity:1;fill-rule:nonzero;stroke:none" d="M 3029.84,4653.66 V 1970.51 h -50.41 v 2683.15 h 50.41" /><path id="path112" style="fill:#3d79be;fill-opacity:1;fill-rule:nonzero;stroke:none" d="M 3080.24,4653.66 V 1970.51 h -50.4 v 2683.15 h 50.4" /><path id="path114" style="fill:#3c78bd;fill-opacity:1;fill-rule:nonzero;stroke:none" d="M 3130.64,4653.66 V 1970.51 h -50.4 v 2683.15 h 50.4" /><path id="path116" style="fill:#3c77bd;fill-opacity:1;fill-rule:nonzero;stroke:none" d="M 3181.04,4653.66 V 1970.51 h -50.4 v 2683.15 h 50.4" /><path id="path118" style="fill:#3b76bd;fill-opacity:1;fill-rule:nonzero;stroke:none" d="M 3231.44,4653.66 V 1970.51 h -50.4 v 2683.15 h 50.4" /><path id="path120" style="fill:#3b75bc;fill-opacity:1;fill-rule:nonzero;stroke:none" d="M 3281.84,4653.66 V 1970.51 h -50.4 v 2683.15 h 50.4" /><path id="path122" style="fill:#3b75bb;fill-opacity:1;fill-rule:nonzero;stroke:none" d="M 3332.25,4653.66 V 1970.51 h -50.41 v 2683.15 h 50.41" /><path id="path124" style="fill:#3a74bb;fill-opacity:1;fill-rule:nonzero;stroke:none" d="M 3382.65,4653.66 V 1970.51 h -50.4 v 2683.15 h 50.4" /><path id="path126" style="fill:#3a73bb;fill-opacity:1;fill-rule:nonzero;stroke:none" d="M 3433.05,4653.66 V 1970.51 h -50.4 v 2683.15 h 50.4" /><path id="path128" style="fill:#3972ba;fill-opacity:1;fill-rule:nonzero;stroke:none" d="M 3483.45,4653.66 V 1970.51 h -50.4 v 2683.15 h 50.4" /><path id="path130" style="fill:#3971ba;fill-opacity:1;fill-rule:nonzero;stroke:none" d="M 3533.85,4653.66 V 1970.51 h -50.4 v 2683.15 h 50.4" /><path id="path132" style="fill:#3970b9;fill-opacity:1;fill-rule:nonzero;stroke:none" d="M 3584.25,4653.66 V 1970.51 h -50.4 v 2683.15 h 50.4" /><path id="path134" style="fill:#386fb8;fill-opacity:1;fill-rule:nonzero;stroke:none" d="M 3634.66,4653.66 V 1970.51 h -50.41 v 2683.15 h 50.41" /><path id="path136" style="fill:#386fb8;fill-opacity:1;fill-rule:nonzero;stroke:none" d="M 3685.06,4653.66 V 1970.51 h -50.4 v 2683.15 h 50.4" /><path id="path138" style="fill:#376eb8;fill-opacity:1;fill-rule:nonzero;stroke:none" d="M 3735.46,4653.66 V 1970.51 h -50.4 v 2683.15 h 50.4" /><path id="path140" style="fill:#376eb8;fill-opacity:1;fill-rule:nonzero;stroke:none" d="m 3735.46,1970.51 v 2683.15 h 5.86 V 1970.51 h -5.86" /></g></g><path id="path142" style="fill:#5e6268;fill-opacity:1;fill-rule:nonzero;stroke:none" d="m 2877.79,4635.18 c -202.16,0 -405.87,-0.25 -607.53,-1.16 -289.6,-1.03 -559.73,-84.49 -802.86,-248.11 C 1270.44,4253.55 1117.08,4085.77 1011.58,3887.24 796.797,3483.86 772.414,3067 939.078,2648.24 1045.31,2381.81 1219.1,2164.99 1455.85,2003.29 v 528.32 c -180.57,219.61 -256.51,479.63 -225.74,773.01 56.07,534.62 509.52,938.04 1054.77,938.38 133.03,0.12 266.14,0.07 399.2,-0.02 198.81,-0.12 397.63,-0.24 596.37,0.38 215.21,0.99 389.17,143.77 432.82,355.28 1.68,8.08 6.11,29.56 4.26,34.33 -3.49,1.75 -25.7,1.75 -34.07,1.75 l -403.76,0.23 c -132.51,0.11 -266.88,0.23 -401.91,0.23 z m -1386.87,-2697.03 -27.1,17.67 c -256.82,167.49 -444.33,396.09 -557.312,679.44 -170.672,428.79 -145.738,855.55 74.113,1268.45 108.239,203.67 265.419,375.7 467.199,511.31 249,167.54 525.65,253.02 822.28,254.07 336.47,1.5 678.67,1.25 1009.63,0.92 l 403.73,-0.22 c 29.72,0 50.08,-1.06 61.68,-15.31 11.52,-14.14 8.63,-33.22 2.48,-62.93 -47.09,-228.15 -234.78,-382.18 -467.03,-383.26 -198.76,-0.63 -397.65,-0.51 -596.52,-0.38 -133.09,0.07 -266.14,0.16 -399.16,0.02 -527.27,-0.34 -965.74,-390.25 -1019.93,-906.97 -29.97,-285.8 44.69,-538.75 221.88,-751.82 l 4.06,-4.88 v -606.11" /><g id="g144"><g clip-path="url(#clipPath150)" id="g146"><path id="path152" style="fill:#4ea5d5;fill-opacity:1;fill-rule:nonzero;stroke:none" d="M 1335.21,3812.7 V 928.949 3812.7" /><path id="path154" style="fill:#4ea5d5;fill-opacity:1;fill-rule:nonzero;stroke:none" d="M 1376.65,3812.7 V 928.949 h -41.44 V 3812.7 h 41.44" /><path id="path156" style="fill:#4da4d4;fill-opacity:1;fill-rule:nonzero;stroke:none" d="M 1418.09,3812.7 V 928.949 h -41.44 V 3812.7 h 41.44" /><path id="path158" style="fill:#4da3d4;fill-opacity:1;fill-rule:nonzero;stroke:none" d="M 1459.52,3812.7 V 928.949 h -41.43 V 3812.7 h 41.43" /><path id="path160" style="fill:#4da2d3;fill-opacity:1;fill-rule:nonzero;stroke:none" d="M 1500.96,3812.7 V 928.949 h -41.44 V 3812.7 h 41.44" /><path id="path162" style="fill:#4ca1d2;fill-opacity:1;fill-rule:nonzero;stroke:none" d="M 1542.39,3812.7 V 928.949 h -41.43 V 3812.7 h 41.43" /><path id="path164" style="fill:#4ca0d2;fill-opacity:1;fill-rule:nonzero;stroke:none" d="M 1583.83,3812.7 V 928.949 h -41.44 V 3812.7 h 41.44" /><path id="path166" style="fill:#4c9fd1;fill-opacity:1;fill-rule:nonzero;stroke:none" d="M 1625.26,3812.7 V 928.949 h -41.43 V 3812.7 h 41.43" /><path id="path168" style="fill:#4b9dd0;fill-opacity:1;fill-rule:nonzero;stroke:none" d="M 1666.7,3812.7 V 928.949 h -41.44 V 3812.7 h 41.44" /><path id="path170" style="fill:#4b9cd0;fill-opacity:1;fill-rule:nonzero;stroke:none" d="M 1708.13,3812.7 V 928.949 H 1666.7 V 3812.7 h 41.43" /><path id="path172" style="fill:#4a9bcf;fill-opacity:1;fill-rule:nonzero;stroke:none" d="M 1749.57,3812.7 V 928.949 h -41.44 V 3812.7 h 41.44" /><path id="path174" style="fill:#4a9acf;fill-opacity:1;fill-rule:nonzero;stroke:none" d="M 1791,3812.7 V 928.949 h -41.43 V 3812.7 H 1791" /><path id="path176" style="fill:#4999cf;fill-opacity:1;fill-rule:nonzero;stroke:none" d="M 1832.44,3812.7 V 928.949 H 1791 V 3812.7 h 41.44" /><path id="path178" style="fill:#4998ce;fill-opacity:1;fill-rule:nonzero;stroke:none" d="M 1873.88,3812.7 V 928.949 h -41.44 V 3812.7 h 41.44" /><path id="path180" style="fill:#4897cd;fill-opacity:1;fill-rule:nonzero;stroke:none" d="M 1915.31,3812.7 V 928.949 h -41.43 V 3812.7 h 41.43" /><path id="path182" style="fill:#4896cd;fill-opacity:1;fill-rule:nonzero;stroke:none" d="M 1956.75,3812.7 V 928.949 h -41.44 V 3812.7 h 41.44" /><path id="path184" style="fill:#4795cc;fill-opacity:1;fill-rule:nonzero;stroke:none" d="M 1998.18,3812.7 V 928.949 h -41.43 V 3812.7 h 41.43" /><path id="path186" style="fill:#4794cb;fill-opacity:1;fill-rule:nonzero;stroke:none" d="M 2039.62,3812.7 V 928.949 h -41.44 V 3812.7 h 41.44" /><path id="path188" style="fill:#4693cb;fill-opacity:1;fill-rule:nonzero;stroke:none" d="M 2081.05,3812.7 V 928.949 h -41.43 V 3812.7 h 41.43" /><path id="path190" style="fill:#4692ca;fill-opacity:1;fill-rule:nonzero;stroke:none" d="M 2122.49,3812.7 V 928.949 h -41.44 V 3812.7 h 41.44" /><path id="path192" style="fill:#4691c9;fill-opacity:1;fill-rule:nonzero;stroke:none" d="M 2163.92,3812.7 V 928.949 h -41.43 V 3812.7 h 41.43" /><path id="path194" style="fill:#4690c9;fill-opacity:1;fill-rule:nonzero;stroke:none" d="M 2205.36,3812.7 V 928.949 h -41.44 V 3812.7 h 41.44" /><path id="path196" style="fill:#468fc9;fill-opacity:1;fill-rule:nonzero;stroke:none" d="M 2246.8,3812.7 V 928.949 h -41.44 V 3812.7 h 41.44" /><path id="path198" style="fill:#458ec8;fill-opacity:1;fill-rule:nonzero;stroke:none" d="M 2288.23,3812.7 V 928.949 H 2246.8 V 3812.7 h 41.43" /><path id="path200" style="fill:#458dc8;fill-opacity:1;fill-rule:nonzero;stroke:none" d="M 2329.67,3812.7 V 928.949 h -41.44 V 3812.7 h 41.44" /><path id="path202" style="fill:#448cc7;fill-opacity:1;fill-rule:nonzero;stroke:none" d="M 2371.1,3812.7 V 928.949 h -41.43 V 3812.7 h 41.43" /><path id="path204" style="fill:#448bc6;fill-opacity:1;fill-rule:nonzero;stroke:none" d="M 2412.54,3812.7 V 928.949 H 2371.1 V 3812.7 h 41.44" /><path id="path206" style="fill:#448ac6;fill-opacity:1;fill-rule:nonzero;stroke:none" d="M 2453.97,3812.7 V 928.949 h -41.43 V 3812.7 h 41.43" /><path id="path208" style="fill:#4489c5;fill-opacity:1;fill-rule:nonzero;stroke:none" d="M 2495.41,3812.7 V 928.949 h -41.44 V 3812.7 h 41.44" /><path id="path210" style="fill:#4388c5;fill-opacity:1;fill-rule:nonzero;stroke:none" d="M 2536.84,3812.7 V 928.949 h -41.43 V 3812.7 h 41.43" /><path id="path212" style="fill:#4387c5;fill-opacity:1;fill-rule:nonzero;stroke:none" d="M 2578.28,3812.7 V 928.949 h -41.44 V 3812.7 h 41.44" /><path id="path214" style="fill:#4286c4;fill-opacity:1;fill-rule:nonzero;stroke:none" d="M 2619.71,3812.7 V 928.949 h -41.43 V 3812.7 h 41.43" /><path id="path216" style="fill:#4285c3;fill-opacity:1;fill-rule:nonzero;stroke:none" d="M 2661.15,3812.7 V 928.949 h -41.44 V 3812.7 h 41.44" /><path id="path218" style="fill:#4184c4;fill-opacity:1;fill-rule:nonzero;stroke:none" d="M 2702.59,3812.7 V 928.949 h -41.44 V 3812.7 h 41.44" /><path id="path220" style="fill:#4083c3;fill-opacity:1;fill-rule:nonzero;stroke:none" d="M 2744.02,3812.7 V 928.949 h -41.43 V 3812.7 h 41.43" /><path id="path222" style="fill:#4082c2;fill-opacity:1;fill-rule:nonzero;stroke:none" d="M 2785.46,3812.7 V 928.949 h -41.44 V 3812.7 h 41.44" /><path id="path224" style="fill:#4081c3;fill-opacity:1;fill-rule:nonzero;stroke:none" d="M 2826.89,3812.7 V 928.949 h -41.43 V 3812.7 h 41.43" /><path id="path226" style="fill:#3f80c2;fill-opacity:1;fill-rule:nonzero;stroke:none" d="M 2868.33,3812.7 V 928.949 h -41.44 V 3812.7 h 41.44" /><path id="path228" style="fill:#3f7fc1;fill-opacity:1;fill-rule:nonzero;stroke:none" d="M 2909.76,3812.7 V 928.949 h -41.43 V 3812.7 h 41.43" /><path id="path230" style="fill:#3f7ec1;fill-opacity:1;fill-rule:nonzero;stroke:none" d="M 2951.2,3812.7 V 928.949 h -41.44 V 3812.7 h 41.44" /><path id="path232" style="fill:#3e7ec0;fill-opacity:1;fill-rule:nonzero;stroke:none" d="M 2992.63,3812.7 V 928.949 H 2951.2 V 3812.7 h 41.43" /><path id="path234" style="fill:#3e7cbf;fill-opacity:1;fill-rule:nonzero;stroke:none" d="M 3034.07,3812.7 V 928.949 h -41.44 V 3812.7 h 41.44" /><path id="path236" style="fill:#3e7cc0;fill-opacity:1;fill-rule:nonzero;stroke:none" d="M 3075.5,3812.7 V 928.949 h -41.43 V 3812.7 h 41.43" /><path id="path238" style="fill:#3e7bbf;fill-opacity:1;fill-rule:nonzero;stroke:none" d="M 3116.94,3812.7 V 928.949 H 3075.5 V 3812.7 h 41.44" /><path id="path240" style="fill:#3d7abe;fill-opacity:1;fill-rule:nonzero;stroke:none" d="M 3158.38,3812.7 V 928.949 h -41.44 V 3812.7 h 41.44" /><path id="path242" style="fill:#3d79be;fill-opacity:1;fill-rule:nonzero;stroke:none" d="M 3199.81,3812.7 V 928.949 h -41.43 V 3812.7 h 41.43" /><path id="path244" style="fill:#3c78bd;fill-opacity:1;fill-rule:nonzero;stroke:none" d="M 3241.25,3812.7 V 928.949 h -41.44 V 3812.7 h 41.44" /><path id="path246" style="fill:#3c77bd;fill-opacity:1;fill-rule:nonzero;stroke:none" d="M 3282.68,3812.7 V 928.949 h -41.43 V 3812.7 h 41.43" /><path id="path248" style="fill:#3b76bd;fill-opacity:1;fill-rule:nonzero;stroke:none" d="M 3324.12,3812.7 V 928.949 h -41.44 V 3812.7 h 41.44" /><path id="path250" style="fill:#3b75bc;fill-opacity:1;fill-rule:nonzero;stroke:none" d="M 3365.55,3812.7 V 928.949 h -41.43 V 3812.7 h 41.43" /><path id="path252" style="fill:#3b75bb;fill-opacity:1;fill-rule:nonzero;stroke:none" d="M 3406.99,3812.7 V 928.949 h -41.44 V 3812.7 h 41.44" /><path id="path254" style="fill:#3a74bb;fill-opacity:1;fill-rule:nonzero;stroke:none" d="M 3448.42,3812.7 V 928.949 h -41.43 V 3812.7 h 41.43" /><path id="path256" style="fill:#3a73bb;fill-opacity:1;fill-rule:nonzero;stroke:none" d="M 3489.86,3812.7 V 928.949 h -41.44 V 3812.7 h 41.44" /><path id="path258" style="fill:#3972ba;fill-opacity:1;fill-rule:nonzero;stroke:none" d="M 3531.3,3812.7 V 928.949 h -41.44 V 3812.7 h 41.44" /><path id="path260" style="fill:#3971ba;fill-opacity:1;fill-rule:nonzero;stroke:none" d="M 3572.73,3812.7 V 928.949 H 3531.3 V 3812.7 h 41.43" /><path id="path262" style="fill:#3970b9;fill-opacity:1;fill-rule:nonzero;stroke:none" d="M 3614.17,3812.7 V 928.949 h -41.44 V 3812.7 h 41.44" /><path id="path264" style="fill:#386fb8;fill-opacity:1;fill-rule:nonzero;stroke:none" d="M 3655.6,3812.7 V 928.949 h -41.43 V 3812.7 h 41.43" /><path id="path266" style="fill:#386fb8;fill-opacity:1;fill-rule:nonzero;stroke:none" d="M 3697.04,3812.7 V 928.949 H 3655.6 V 3812.7 h 41.44" /><path id="path268" style="fill:#376eb8;fill-opacity:1;fill-rule:nonzero;stroke:none" d="M 3738.47,3812.7 V 928.949 h -41.43 V 3812.7 h 41.43" /><path id="path270" style="fill:#376eb8;fill-opacity:1;fill-rule:nonzero;stroke:none" d="M 3738.47,928.949 V 3812.7 h 2.85 V 928.949 h -2.85" /></g></g><path id="path272" style="fill:#5e6268;fill-opacity:1;fill-rule:nonzero;stroke:none" d="m 3292.45,3358.44 c 0,-0.05 0,-0.12 0.02,-0.17 -0.02,0.05 -0.02,0.12 -0.02,0.17 z m 0.79,-3.34 v 0 z M 1901.33,950.582 c 63.13,0 118.41,-0.652 161.92,-2.98 l -1.01,1314.428 c 0.07,86.06 0.13,170.07 -0.4,254.06 -0.17,15.16 3.67,26.53 11.73,34.68 12.28,12.43 29.92,12.55 44.39,12.41 27.04,0.07 53.39,0 79.79,-0.07 47.68,-0.17 95.45,-0.39 143.19,0.78 208.6,4.41 379.75,137.4 425.94,330.91 3.59,15.79 5.55,32.19 7.79,51.2 0.31,2.59 0.62,5.21 0.94,7.86 h -715.89 l 1.47,18.9 c 2.49,31.67 1.32,63.7 0.21,94.7 -2.33,64.66 -4.73,131.51 25.99,196.2 43.26,90.24 119.01,138.31 219.1,139.08 279.82,1.8 587.34,1.73 967.81,-0.34 18.87,0 52.38,-21 53.19,-42.47 7.91,-169.35 4.85,-390.66 -89.93,-599.21 -172.82,-378.88 -548.46,-622 -960.39,-623.37 v -390.26 c 85.11,0.29 169.44,7.51 250.95,21.52 671.85,117.09 1172.36,694.37 1190.05,1372.63 v 0.02 c 3.51,130.35 2.89,263.16 2.31,391.59 -0.38,78.49 -0.74,156.99 -0.21,235.43 0.16,15.19 -2.57,20.17 -4.21,21.8 -2.05,2.04 -8.01,4.43 -22.76,4.04 -78.24,-1.3 -156.32,-1.08 -234.44,-0.86 l -355.49,0.38 c -263.8,0.31 -536.58,0.67 -804.98,-1.99 -64.9,-0.32 -133.68,-12.24 -198.98,-34.47 -258.86,-87.88 -427.22,-325.33 -428.93,-604.94 -0.68,-178.57 -0.7,-357.15 -0.39,-535.75 h 0.03 l 0.36,-17.54 v -768.01 h -172.19 v -212.52 h 171.13 v -17.54 c 0,-52.19 0.33,-104.37 0.65,-156.56 l 0.16,-25.1 H 1352.75 V 1206.7 h 314.08 l -0.22,-17.76 c -0.97,-76.51 -1.04,-152.98 -0.19,-239.268 40.55,0.047 80.43,0.258 118.84,0.457 40.79,0.23 79.73,0.453 116.07,0.453 z m 196.99,-40.473 -18.79,1.36 c -67.48,4.812 -172.42,4.211 -294.08,3.594 -43.94,-0.223 -89.78,-0.481 -136.37,-0.481 h -17.35 l -0.19,17.348 c -0.96,86.99 -1.02,163.69 -0.2,239.7 h -313.66 v 282.66 h 317.27 c -0.27,43.01 -0.53,86.04 -0.58,129.06 h -171.15 v 282.66 h 172.19 l -0.36,732.91 c -0.34,184.49 -0.34,369 0.36,553.49 1.82,294.82 179.51,545.22 452.72,637.98 68.82,23.42 141.44,35.99 210,36.33 268.5,2.66 541.39,2.31 805.28,1.99 l 355.56,-0.38 c 77.94,-0.25 155.8,-0.44 233.66,0.86 15.54,0.19 34.78,-0.99 48.09,-14.18 13.41,-13.27 14.76,-33.2 14.62,-47.04 -0.53,-78.24 -0.17,-156.59 0.21,-234.95 0.58,-128.7 1.2,-261.79 -2.31,-392.7 v 0 C 3735.1,2445.42 3222.38,1854.01 2534.1,1734.05 c -89.17,-15.32 -181.55,-22.8 -274.6,-22 l -17.4,0.14 v 460.56 l 17.78,-0.24 c 4.59,-0.07 9.26,-0.11 13.85,-0.11 399.62,0 764.3,235.4 931.91,602.86 91.23,200.74 94.52,415.56 86.93,580.8 -3.47,4.37 -14.11,10.98 -18.46,11.27 -380.36,2.07 -687.75,2.14 -967.36,0.34 -85.76,-0.65 -150.67,-41.85 -187.71,-119.11 -27.02,-56.9 -24.87,-116.61 -22.59,-179.83 0.93,-25.98 1.88,-52.66 0.81,-79.8 h 718.33 l -2.7,-19.9 c -1.3,-9.55 -2.38,-18.54 -3.39,-27.16 -2.28,-19.16 -4.42,-37.26 -8.48,-55.05 -49.19,-206.17 -238.05,-353.31 -459.29,-358 -48.03,-1.17 -96.1,-0.96 -144.11,-0.77 -26.32,0.1 -52.64,0.18 -78.87,0.06 -7.3,0.06 -18.27,0 -20.24,-2 -0.02,-0.02 -1.68,-1.92 -1.6,-9.71 0.53,-84.16 0.47,-168.24 0.4,-254.39 l -0.04,-69.23 0.35,-17.11 0.7,-1265.561" /><g id="g274"><g clip-path="url(#clipPath280)" id="g276"><path id="path282" style="fill:#4da3d4;fill-opacity:1;fill-rule:nonzero;stroke:none" d="M 238.531,5082.7 370.332,273.781 348.621,273.582 216.824,5082.5 l 21.707,0.2" /><path id="path284" style="fill:#4da2d3;fill-opacity:1;fill-rule:nonzero;stroke:none" d="m 315.965,5083.38 131.797,-4808.919 -77.43,-0.68 -131.801,4808.919 77.434,0.68" /><path id="path286" style="fill:#4ca1d2;fill-opacity:1;fill-rule:nonzero;stroke:none" d="M 393.395,5084.07 525.191,275.148 447.762,274.461 315.965,5083.38 l 77.43,0.69" /><path id="path288" style="fill:#4ca0d2;fill-opacity:1;fill-rule:nonzero;stroke:none" d="m 470.824,5084.75 131.797,-4808.918 -77.43,-0.684 -131.796,4808.922 77.429,0.68" /><path id="path290" style="fill:#4c9fd1;fill-opacity:1;fill-rule:nonzero;stroke:none" d="m 548.254,5085.44 131.797,-4808.92 -77.43,-0.688 -131.797,4808.918 77.43,0.69" /><path id="path292" style="fill:#4b9dd0;fill-opacity:1;fill-rule:nonzero;stroke:none" d="M 625.684,5086.12 757.48,277.199 680.051,276.52 548.254,5085.44 l 77.43,0.68" /><path id="path294" style="fill:#4b9cd0;fill-opacity:1;fill-rule:nonzero;stroke:none" d="M 703.113,5086.81 834.91,277.891 757.48,277.199 625.684,5086.12 l 77.429,0.69" /><path id="path296" style="fill:#4a9bcf;fill-opacity:1;fill-rule:nonzero;stroke:none" d="M 780.543,5087.49 912.344,278.57 834.91,277.891 703.113,5086.81 l 77.43,0.68" /><path id="path298" style="fill:#4a9acf;fill-opacity:1;fill-rule:nonzero;stroke:none" d="m 857.973,5088.18 131.8,-4808.918 -77.429,-0.692 -131.801,4808.92 77.43,0.69" /><path id="path300" style="fill:#4999cf;fill-opacity:1;fill-rule:nonzero;stroke:none" d="M 935.402,5088.86 1067.2,279.949 l -77.427,-0.687 -131.8,4808.918 77.429,0.68" /><path id="path302" style="fill:#4998ce;fill-opacity:1;fill-rule:nonzero;stroke:none" d="m 1012.83,5089.55 131.8,-4808.921 -77.43,-0.68 -131.798,4808.911 77.428,0.69" /><path id="path304" style="fill:#4897cd;fill-opacity:1;fill-rule:nonzero;stroke:none" d="m 1090.26,5090.23 131.8,-4808.91 -77.43,-0.691 -131.8,4808.921 77.43,0.68" /><path id="path306" style="fill:#4896cd;fill-opacity:1;fill-rule:nonzero;stroke:none" d="M 1167.7,5090.92 1299.49,282 l -77.43,-0.68 -131.8,4808.91 77.44,0.69" /><path id="path308" style="fill:#4795cc;fill-opacity:1;fill-rule:nonzero;stroke:none" d="M 1245.13,5091.61 1376.92,282.691 1299.49,282 1167.7,5090.92 l 77.43,0.69" /><path id="path310" style="fill:#4794cb;fill-opacity:1;fill-rule:nonzero;stroke:none" d="m 1322.56,5092.29 131.79,-4808.919 -77.43,-0.68 -131.79,4808.919 77.43,0.68" /><path id="path312" style="fill:#4693cb;fill-opacity:1;fill-rule:nonzero;stroke:none" d="m 1399.99,5092.98 131.79,-4808.917 -77.43,-0.692 -131.79,4808.919 77.43,0.69" /><path id="path314" style="fill:#4692ca;fill-opacity:1;fill-rule:nonzero;stroke:none" d="m 1477.42,5093.66 131.79,-4808.918 -77.43,-0.679 -131.79,4808.917 77.43,0.68" /><path id="path316" style="fill:#4691c9;fill-opacity:1;fill-rule:nonzero;stroke:none" d="m 1554.85,5094.35 131.79,-4808.92 -77.43,-0.688 -131.79,4808.918 77.43,0.69" /><path id="path318" style="fill:#4690c9;fill-opacity:1;fill-rule:nonzero;stroke:none" d="m 1632.28,5095.03 131.79,-4808.921 -77.43,-0.679 -131.79,4808.92 77.43,0.68" /><path id="path320" style="fill:#468fc9;fill-opacity:1;fill-rule:nonzero;stroke:none" d="m 1709.71,5095.72 131.79,-4808.919 -77.43,-0.692 -131.79,4808.921 77.43,0.69" /><path id="path322" style="fill:#458ec8;fill-opacity:1;fill-rule:nonzero;stroke:none" d="m 1787.14,5096.4 131.79,-4808.92 -77.43,-0.679 -131.79,4808.919 77.43,0.68" /><path id="path324" style="fill:#458dc8;fill-opacity:1;fill-rule:nonzero;stroke:none" d="m 1864.57,5097.09 131.79,-4808.918 -77.43,-0.692 -131.79,4808.92 77.43,0.69" /><path id="path326" style="fill:#448cc7;fill-opacity:1;fill-rule:nonzero;stroke:none" d="m 1942,5097.77 131.79,-4808.918 -77.43,-0.68 -131.79,4808.918 77.43,0.68" /><path id="path328" style="fill:#448bc6;fill-opacity:1;fill-rule:nonzero;stroke:none" d="m 2019.43,5098.46 131.8,-4808.921 -77.44,-0.687 -131.79,4808.918 77.43,0.69" /><path id="path330" style="fill:#448ac6;fill-opacity:1;fill-rule:nonzero;stroke:none" d="m 2096.86,5099.14 131.8,-4808.91 -77.43,-0.691 -131.8,4808.921 77.43,0.68" /><path id="path332" style="fill:#4489c5;fill-opacity:1;fill-rule:nonzero;stroke:none" d="m 2174.29,5099.83 131.8,-4808.92 -77.43,-0.68 -131.8,4808.91 77.43,0.69" /><path id="path334" style="fill:#4388c5;fill-opacity:1;fill-rule:nonzero;stroke:none" d="m 2251.72,5100.52 131.8,-4808.918 -77.43,-0.692 -131.8,4808.92 77.43,0.69" /><path id="path336" style="fill:#4387c5;fill-opacity:1;fill-rule:nonzero;stroke:none" d="m 2329.15,5101.2 131.8,-4808.919 -77.43,-0.679 -131.8,4808.918 77.43,0.68" /><path id="path338" style="fill:#4286c4;fill-opacity:1;fill-rule:nonzero;stroke:none" d="m 2406.58,5101.89 131.8,-4808.921 -77.43,-0.688 -131.8,4808.919 77.43,0.69" /><path id="path340" style="fill:#4285c3;fill-opacity:1;fill-rule:nonzero;stroke:none" d="m 2484.01,5102.57 131.8,-4808.918 -77.43,-0.683 -131.8,4808.921 77.43,0.68" /><path id="path342" style="fill:#4184c4;fill-opacity:1;fill-rule:nonzero;stroke:none" d="m 2561.44,5103.26 131.8,-4808.92 -77.43,-0.688 -131.8,4808.918 77.43,0.69" /><path id="path344" style="fill:#4083c3;fill-opacity:1;fill-rule:nonzero;stroke:none" d="m 2638.87,5103.94 131.8,-4808.92 -77.43,-0.68 -131.8,4808.92 77.43,0.68" /><path id="path346" style="fill:#4082c2;fill-opacity:1;fill-rule:nonzero;stroke:none" d="m 2716.3,5104.63 131.8,-4808.919 -77.43,-0.691 -131.8,4808.92 77.43,0.69" /><path id="path348" style="fill:#4081c3;fill-opacity:1;fill-rule:nonzero;stroke:none" d="m 2793.73,5105.31 131.8,-4808.919 -77.43,-0.68 -131.8,4808.919 77.43,0.68" /><path id="path350" style="fill:#3f80c2;fill-opacity:1;fill-rule:nonzero;stroke:none" d="m 2871.16,5106 131.8,-4808.918 -77.43,-0.691 -131.8,4808.919 77.43,0.69" /><path id="path352" style="fill:#3f7fc1;fill-opacity:1;fill-rule:nonzero;stroke:none" d="m 2948.59,5106.68 131.8,-4808.918 -77.43,-0.68 -131.8,4808.918 77.43,0.68" /><path id="path354" style="fill:#3f7ec1;fill-opacity:1;fill-rule:nonzero;stroke:none" d="m 3026.02,5107.37 131.8,-4808.921 -77.43,-0.687 -131.8,4808.918 77.43,0.69" /><path id="path356" style="fill:#3e7ec0;fill-opacity:1;fill-rule:nonzero;stroke:none" d="m 3103.45,5108.05 131.8,-4808.909 -77.43,-0.692 -131.8,4808.921 77.43,0.68" /><path id="path358" style="fill:#3e7cbf;fill-opacity:1;fill-rule:nonzero;stroke:none" d="m 3180.88,5108.74 131.8,-4808.92 -77.43,-0.679 -131.8,4808.909 77.43,0.69" /><path id="path360" style="fill:#3e7cc0;fill-opacity:1;fill-rule:nonzero;stroke:none" d="m 3258.31,5109.43 131.8,-4808.918 -77.43,-0.692 -131.8,4808.92 77.43,0.69" /><path id="path362" style="fill:#3e7bbf;fill-opacity:1;fill-rule:nonzero;stroke:none" d="m 3335.74,5110.11 131.8,-4808.919 -77.43,-0.679 -131.8,4808.918 77.43,0.68" /><path id="path364" style="fill:#3d7abe;fill-opacity:1;fill-rule:nonzero;stroke:none" d="m 3413.17,5110.8 131.8,-4808.921 -77.43,-0.688 -131.8,4808.919 77.43,0.69" /><path id="path366" style="fill:#3d79be;fill-opacity:1;fill-rule:nonzero;stroke:none" d="m 3490.6,5111.48 131.8,-4808.917 -77.43,-0.684 -131.8,4808.921 77.43,0.68" /><path id="path368" style="fill:#3c78bd;fill-opacity:1;fill-rule:nonzero;stroke:none" d="m 3568.03,5112.17 131.8,-4808.92 -77.43,-0.687 -131.8,4808.917 77.43,0.69" /><path id="path370" style="fill:#3c77bd;fill-opacity:1;fill-rule:nonzero;stroke:none" d="m 3645.46,5112.85 131.8,-4808.92 -77.43,-0.68 -131.8,4808.92 77.43,0.68" /><path id="path372" style="fill:#3b76bd;fill-opacity:1;fill-rule:nonzero;stroke:none" d="m 3722.89,5113.54 131.8,-4808.919 -77.43,-0.691 -131.8,4808.92 77.43,0.69" /><path id="path374" style="fill:#3b75bc;fill-opacity:1;fill-rule:nonzero;stroke:none" d="m 3800.32,5114.22 131.8,-4808.919 -77.43,-0.68 -131.8,4808.919 77.43,0.68" /><path id="path376" style="fill:#3b75bb;fill-opacity:1;fill-rule:nonzero;stroke:none" d="m 3877.75,5114.91 131.8,-4808.918 -77.43,-0.691 -131.8,4808.919 77.43,0.69" /><path id="path378" style="fill:#3a74bb;fill-opacity:1;fill-rule:nonzero;stroke:none" d="m 3955.18,5115.59 131.8,-4808.918 -77.43,-0.68 -131.8,4808.918 77.43,0.68" /><path id="path380" style="fill:#3a73bb;fill-opacity:1;fill-rule:nonzero;stroke:none" d="m 4032.61,5116.28 131.8,-4808.921 -77.43,-0.687 -131.8,4808.918 77.43,0.69" /><path id="path382" style="fill:#3972ba;fill-opacity:1;fill-rule:nonzero;stroke:none" d="m 4110.04,5116.96 131.8,-4808.909 -77.43,-0.692 -131.8,4808.921 77.43,0.68" /><path id="path384" style="fill:#3971ba;fill-opacity:1;fill-rule:nonzero;stroke:none" d="m 4187.47,5117.65 131.8,-4808.92 -77.43,-0.679 -131.8,4808.909 77.43,0.69" /><path id="path386" style="fill:#3970b9;fill-opacity:1;fill-rule:nonzero;stroke:none" d="m 4319.27,308.73 -131.8,4808.92 64.16,0.57 131.8,-4808.919 -64.16,-0.571" /><path id="path388" style="fill:#4ea5d5;fill-opacity:1;fill-rule:nonzero;stroke:none" d="M -0.550781,5328.54 145.449,1.35938 127.32,1.19922 -18.6797,5328.38 l 18.128919,0.16" /><path id="path390" style="fill:#4ea5d5;fill-opacity:1;fill-rule:nonzero;stroke:none" d="M 76.8789,5329.22 222.879,2.05078 145.449,1.35938 -0.550781,5328.54 76.8789,5329.22" /><path id="path392" style="fill:#4da4d4;fill-opacity:1;fill-rule:nonzero;stroke:none" d="M 154.309,5329.91 300.309,2.74219 222.879,2.05078 76.8789,5329.22 l 77.4301,0.69" /><path id="path394" style="fill:#4da3d4;fill-opacity:1;fill-rule:nonzero;stroke:none" d="M 231.738,5330.59 377.742,3.42188 300.309,2.74219 l -146,5327.16781 77.429,0.68" /><path id="path396" style="fill:#4da2d3;fill-opacity:1;fill-rule:nonzero;stroke:none" d="M 309.168,5331.28 455.172,4.10938 377.742,3.42188 231.738,5330.59 l 77.43,0.69" /><path id="path398" style="fill:#4ca1d2;fill-opacity:1;fill-rule:nonzero;stroke:none" d="M 386.598,5331.96 532.602,4.78906 455.172,4.10938 309.168,5331.28 l 77.43,0.68" /><path id="path400" style="fill:#4ca0d2;fill-opacity:1;fill-rule:nonzero;stroke:none" d="M 464.027,5332.65 610.031,5.48047 532.602,4.78906 386.598,5331.96 l 77.429,0.69" /><path id="path402" style="fill:#4c9fd1;fill-opacity:1;fill-rule:nonzero;stroke:none" d="M 541.461,5333.33 687.461,6.16016 610.031,5.48047 464.027,5332.65 l 77.434,0.68" /><path id="path404" style="fill:#4b9dd0;fill-opacity:1;fill-rule:nonzero;stroke:none" d="m 618.891,5334.02 146,-5327.16844 -77.43,-0.6914 -146,5327.16984 77.43,0.69" /><path id="path406" style="fill:#4b9cd0;fill-opacity:1;fill-rule:nonzero;stroke:none" d="M 696.32,5334.7 842.32,7.53125 764.891,6.85156 618.891,5334.02 696.32,5334.7" /><path id="path408" style="fill:#4a9bcf;fill-opacity:1;fill-rule:nonzero;stroke:none" d="M 773.75,5335.39 919.754,8.21875 842.32,7.53125 696.32,5334.7 l 77.43,0.69" /><path id="path410" style="fill:#4a9acf;fill-opacity:1;fill-rule:nonzero;stroke:none" d="M 851.18,5336.07 997.184,8.89844 919.754,8.21875 773.75,5335.39 l 77.43,0.68" /><path id="path412" style="fill:#4999cf;fill-opacity:1;fill-rule:nonzero;stroke:none" d="M 928.609,5336.76 1074.61,9.58984 997.184,8.89844 851.18,5336.07 l 77.429,0.69" /><path id="path414" style="fill:#4998ce;fill-opacity:1;fill-rule:nonzero;stroke:none" d="M 1006.04,5337.45 1152.04,10.2695 1074.61,9.58984 928.609,5336.76 l 77.431,0.69" /><path id="path416" style="fill:#4897cd;fill-opacity:1;fill-rule:nonzero;stroke:none" d="m 1083.47,5338.13 146,-5327.1691 -77.43,-0.6914 -146,5327.1805 77.43,0.68" /><path id="path418" style="fill:#4896cd;fill-opacity:1;fill-rule:nonzero;stroke:none" d="m 1160.9,5338.82 146,-5327.1677 -77.43,-0.6914 -146,5327.1691 77.43,0.69" /><path id="path420" style="fill:#4795cc;fill-opacity:1;fill-rule:nonzero;stroke:none" d="m 1238.33,5339.5 146,-5327.168 -77.43,-0.6797 -146,5327.1677 77.43,0.68" /><path id="path422" style="fill:#4794cb;fill-opacity:1;fill-rule:nonzero;stroke:none" d="m 1315.76,5340.19 146,-5327.1705 -77.43,-0.6875 -146,5327.168 77.43,0.69" /><path id="path424" style="fill:#4693cb;fill-opacity:1;fill-rule:nonzero;stroke:none" d="m 1393.19,5340.87 146,-5327.1708 -77.43,-0.6797 -146,5327.1705 77.43,0.68" /><path id="path426" style="fill:#4692ca;fill-opacity:1;fill-rule:nonzero;stroke:none" d="m 1470.62,5341.56 146,-5327.1694 -77.43,-0.6914 -146,5327.1708 77.43,0.69" /><path id="path428" style="fill:#4691c9;fill-opacity:1;fill-rule:nonzero;stroke:none" d="m 1548.05,5342.24 146,-5327.1697 -77.43,-0.6797 -146,5327.1694 77.43,0.68" /><path id="path430" style="fill:#4690c9;fill-opacity:1;fill-rule:nonzero;stroke:none" d="m 1625.48,5342.93 146,-5327.1683 -77.43,-0.6914 -146,5327.1697 77.43,0.69" /><path id="path432" style="fill:#468fc9;fill-opacity:1;fill-rule:nonzero;stroke:none" d="m 1702.91,5343.61 146,-5327.1686 -77.43,-0.6797 -146,5327.1683 77.43,0.68" /><path id="path434" style="fill:#458ec8;fill-opacity:1;fill-rule:nonzero;stroke:none" d="m 1780.34,5344.3 146,-5327.1711 -77.43,-0.6875 -146,5327.1686 77.43,0.69" /><path id="path436" style="fill:#458dc8;fill-opacity:1;fill-rule:nonzero;stroke:none" d="m 1857.77,5344.98 146,-5327.1714 -77.43,-0.6797 -146,5327.1711 77.43,0.68" /><path id="path438" style="fill:#448cc7;fill-opacity:1;fill-rule:nonzero;stroke:none" d="m 1935.2,5345.67 146,-5327.17 -77.43,-0.6914 -146,5327.1714 77.43,0.69" /><path id="path440" style="fill:#448bc6;fill-opacity:1;fill-rule:nonzero;stroke:none" d="m 2012.63,5346.36 146,-5327.1803 -77.43,-0.6797 -146,5327.17 77.43,0.69" /><path id="path442" style="fill:#448ac6;fill-opacity:1;fill-rule:nonzero;stroke:none" d="m 2090.06,5347.04 146,-5327.1689 -77.43,-0.6914 -146,5327.1803 77.43,0.68" /><path id="path444" style="fill:#4489c5;fill-opacity:1;fill-rule:nonzero;stroke:none" d="M 2167.49,5347.73 2313.5,20.5586 l -77.44,-0.6875 -146,5327.1689 77.43,0.69" /><path id="path446" style="fill:#4388c5;fill-opacity:1;fill-rule:nonzero;stroke:none" d="M 2244.92,5348.41 2390.93,21.2422 2313.5,20.5586 2167.49,5347.73 l 77.43,0.68" /><path id="path448" style="fill:#4387c5;fill-opacity:1;fill-rule:nonzero;stroke:none" d="M 2322.35,5349.1 2468.36,21.9297 2390.93,21.2422 2244.92,5348.41 l 77.43,0.69" /><path id="path450" style="fill:#4286c4;fill-opacity:1;fill-rule:nonzero;stroke:none" d="M 2399.78,5349.78 2545.79,22.6094 2468.36,21.9297 2322.35,5349.1 l 77.43,0.68" /><path id="path452" style="fill:#4285c3;fill-opacity:1;fill-rule:nonzero;stroke:none" d="M 2477.21,5350.47 2623.22,23.3008 2545.79,22.6094 2399.78,5349.78 l 77.43,0.69" /><path id="path454" style="fill:#4184c4;fill-opacity:1;fill-rule:nonzero;stroke:none" d="M 2554.64,5351.15 2700.65,23.9805 2623.22,23.3008 2477.21,5350.47 l 77.43,0.68" /><path id="path456" style="fill:#4083c3;fill-opacity:1;fill-rule:nonzero;stroke:none" d="M 2632.07,5351.84 2778.08,24.6719 2700.65,23.9805 2554.64,5351.15 l 77.43,0.69" /><path id="path458" style="fill:#4082c2;fill-opacity:1;fill-rule:nonzero;stroke:none" d="M 2709.5,5352.52 2855.51,25.3516 2778.08,24.6719 2632.07,5351.84 l 77.43,0.68" /><path id="path460" style="fill:#4081c3;fill-opacity:1;fill-rule:nonzero;stroke:none" d="M 2786.93,5353.21 2932.94,26.0391 2855.51,25.3516 2709.5,5352.52 l 77.43,0.69" /><path id="path462" style="fill:#3f80c2;fill-opacity:1;fill-rule:nonzero;stroke:none" d="M 2864.36,5353.89 3010.37,26.7227 2932.94,26.0391 2786.93,5353.21 l 77.43,0.68" /><path id="path464" style="fill:#3f7fc1;fill-opacity:1;fill-rule:nonzero;stroke:none" d="m 2941.8,5354.58 146,-5327.1698 -77.43,-0.6875 -146.01,5327.1673 77.44,0.69" /><path id="path466" style="fill:#3f7ec1;fill-opacity:1;fill-rule:nonzero;stroke:none" d="m 3019.23,5355.27 146,-5327.1802 -77.43,-0.6796 -146,5327.1698 77.43,0.69" /><path id="path468" style="fill:#3e7ec0;fill-opacity:1;fill-rule:nonzero;stroke:none" d="m 3096.66,5355.95 146,-5327.1687 -77.43,-0.6915 -146,5327.1802 77.43,0.68" /><path id="path470" style="fill:#3e7cbf;fill-opacity:1;fill-rule:nonzero;stroke:none" d="m 3174.09,5356.64 146,-5327.1712 -77.43,-0.6875 -146,5327.1687 77.43,0.69" /><path id="path472" style="fill:#3e7cc0;fill-opacity:1;fill-rule:nonzero;stroke:none" d="m 3251.52,5357.32 146,-5327.1716 -77.43,-0.6796 -146,5327.1712 77.43,0.68" /><path id="path474" style="fill:#3e7bbf;fill-opacity:1;fill-rule:nonzero;stroke:none" d="m 3328.95,5358.01 146,-5327.1702 -77.43,-0.6914 -146,5327.1716 77.43,0.69" /><path id="path476" style="fill:#3d7abe;fill-opacity:1;fill-rule:nonzero;stroke:none" d="m 3406.38,5358.69 146,-5327.1705 -77.43,-0.6797 -146,5327.1702 77.43,0.68" /><path id="path478" style="fill:#3d79be;fill-opacity:1;fill-rule:nonzero;stroke:none" d="m 3483.81,5359.38 146,-5327.1691 -77.43,-0.6914 -146,5327.1705 77.43,0.69" /><path id="path480" style="fill:#3c78bd;fill-opacity:1;fill-rule:nonzero;stroke:none" d="m 3561.24,5360.06 146,-5327.1694 -77.43,-0.6797 -146,5327.1691 77.43,0.68" /><path id="path482" style="fill:#3c77bd;fill-opacity:1;fill-rule:nonzero;stroke:none" d="m 3638.67,5360.75 146,-5327.168 -77.43,-0.6914 -146,5327.1694 77.43,0.69" /><path id="path484" style="fill:#3b76bd;fill-opacity:1;fill-rule:nonzero;stroke:none" d="m 3716.1,5361.43 146,-5327.1683 -77.43,-0.6797 -146,5327.168 77.43,0.68" /><path id="path486" style="fill:#3b75bc;fill-opacity:1;fill-rule:nonzero;stroke:none" d="m 3793.53,5362.12 146,-5327.1708 -77.43,-0.6875 -146,5327.1683 77.43,0.69" /><path id="path488" style="fill:#3b75bb;fill-opacity:1;fill-rule:nonzero;stroke:none" d="m 3870.96,5362.8 146,-5327.1711 -77.43,-0.6797 -146,5327.1708 77.43,0.68" /><path id="path490" style="fill:#3a74bb;fill-opacity:1;fill-rule:nonzero;stroke:none" d="m 3948.39,5363.49 146,-5327.1697 -77.43,-0.6914 -146,5327.1711 77.43,0.69" /><path id="path492" style="fill:#3a73bb;fill-opacity:1;fill-rule:nonzero;stroke:none" d="m 4025.82,5364.18 146,-5327.18 -77.43,-0.6797 -146,5327.1697 77.43,0.69" /><path id="path494" style="fill:#3972ba;fill-opacity:1;fill-rule:nonzero;stroke:none" d="M 4103.25,5364.86 4249.25,37.6914 4171.82,37 l -146,5327.18 77.43,0.68" /><path id="path496" style="fill:#3971ba;fill-opacity:1;fill-rule:nonzero;stroke:none" d="m 4180.68,5365.55 146,-5327.1789 -77.43,-0.6797 -146,5327.1686 77.43,0.69" /><path id="path498" style="fill:#3970b9;fill-opacity:1;fill-rule:nonzero;stroke:none" d="m 4258.11,5366.23 146,-5327.1714 -77.43,-0.6875 -146,5327.1789 77.43,0.68" /><path id="path500" style="fill:#386fb8;fill-opacity:1;fill-rule:nonzero;stroke:none" d="m 4335.54,5366.92 146,-5327.17 -77.43,-0.6914 -146,5327.1714 77.43,0.69" /><path id="path502" style="fill:#386fb8;fill-opacity:1;fill-rule:nonzero;stroke:none" d="m 4412.97,5367.6 146,-5327.1703 -77.43,-0.6797 -146,5327.17 77.43,0.68" /><path id="path504" style="fill:#376eb8;fill-opacity:1;fill-rule:nonzero;stroke:none" d="m 4490.4,5368.29 146,-5327.1689 -77.43,-0.6914 -146,5327.1703 77.43,0.69" /><path id="path506" style="fill:#376eb8;fill-opacity:1;fill-rule:nonzero;stroke:none" d="M 4636.4,41.1211 4490.4,5368.29 4636.4,41.1211" /></g></g><path id="path508" style="fill:#5e6268;fill-opacity:1;fill-rule:nonzero;stroke:none" d="M 270.473,4603.54 C 309.27,2435.48 960.723,1031.21 2261.85,311.02 3488.21,1135.13 4137.44,2550.65 4246.25,4637.45 2827.1,5085.76 1489.63,5074.34 270.473,4603.54 Z M 2264.17,270.012 l -9.39,5.187 C 932.734,1001.89 272.125,2421.66 235.184,4615.63 l -0.207,12 11.132,4.33 c 1233.511,479.44 2587.161,491.11 4023.401,34.72 l 13.18,-4.2 -0.7,-13.72 C 4174.5,2537.75 3517.33,1107.37 2272.95,275.879 Z M 35.3164,4762.26 36.0039,4695.94 C 47.3047,3561.9 228.605,2602.83 574.867,1845.36 938.18,1050.64 1493.69,452.5 2225.96,67.5703 l 51.47,-27.039 48.12,31.0078 C 3680.64,944.652 4386.74,2467.33 4484.18,4726.63 l 3.3,76.07 -72.8,23.99 C 2871.45,5335.99 1418.58,5322.64 96.3828,4786.98 Z M 2279.81,0 2210.09,36.6094 C 1470.59,425.332 909.707,1029.13 543.02,1831.28 194.664,2593.31 12.2852,3557.22 0.917969,4696.25 L 0,4786.02 82.6992,4819.5 C 1412.79,5358.32 2873.79,5371.96 4425.11,4859.97 l 98.55,-32.5 -4.41,-102.99 C 4421.28,2453.18 3710.05,921.512 2344.94,41.9805 L 2279.81,0" /></g></g></svg>