<?xml version="1.0" standalone="no"?><!DOCTYPE svg PUBLIC "-//W3C//DTD SVG 1.1//EN" "http://www.w3.org/Graphics/SVG/1.1/DTD/svg11.dtd"><svg t="1641046753295" class="icon" viewBox="0 0 1024 1024" version="1.1" xmlns="http://www.w3.org/2000/svg" p-id="732" width="64" height="64" xmlns:xlink="http://www.w3.org/1999/xlink"><defs><style type="text/css"></style></defs><path d="M763.52 968.96H261.248C147.2 968.96 54.784 876.544 54.784 762.496V260.224C54.784 146.176 147.2 53.76 261.248 53.76h502.272c114.048 0 206.464 92.416 206.464 206.464v502.272c0 114.048-92.416 206.464-206.464 206.464z" fill="#89898E" p-id="733"></path><path d="M671.36 365.44c0-88.576-72.32-160.128-161.536-158.976-81.024 1.152-150.656 66.688-156.288 147.456-5.504 79.104 46.336 146.56 118.016 165.12h0.128v224.128c0 5.12 1.92 9.984 5.376 13.824l45.568 49.92c4.48 4.992 12.288 4.992 16.768 0l65.664-71.68c4.608-4.992 4.352-12.672-0.384-17.408l-33.536-33.536c-5.248-5.248-5.248-13.952 0-19.2l36.096-36.096c7.04-7.04 7.04-18.304 0-25.216l-43.392-43.392c-4.224-4.224-6.528-9.856-6.528-15.744v-26.368c65.92-19.328 114.048-80.384 114.048-152.832zM512.256 294.4c22.528 0 40.832 18.176 40.832 40.576 0 22.528-18.304 40.576-40.832 40.576-22.272 0-40.576-18.176-40.576-40.576 0-22.528 18.304-40.576 40.576-40.576z" fill="#FFFFFF" p-id="734"></path></svg>